<?xml version="1.0" standalone="no"?>
<!DOCTYPE svg PUBLIC "-//W3C//DTD SVG 20010904//EN"
 "http://www.w3.org/TR/2001/REC-SVG-20010904/DTD/svg10.dtd">
<svg version="1.0" xmlns="http://www.w3.org/2000/svg"
 width="560.000000pt" height="560.000000pt" viewBox="0 0 560.000000 560.000000"
 preserveAspectRatio="xMidYMid meet">
<g transform="translate(0.000000,560.000000) scale(0.100000,-0.100000)"
fill="#990000" stroke="none">
<path d="M2094 5402 c-6 -4 -9 -84 -9 -201 l0 -195 152 1 152 0 -2 -1431 -2
-1431 -287 0 -288 0 0 1086 0 1087 130 -1 c72 0 133 3 136 6 6 5 7 76 5 317
l-1 70 -669 0 c-660 0 -669 0 -674 -20 -3 -11 0 -20 6 -20 8 0 8 -3 2 -8 -14
-10 -17 -32 -4 -32 8 0 8 -5 -1 -15 -9 -11 -10 -18 -1 -28 6 -8 8 -17 4 -20
-9 -10 -10 -59 -1 -85 5 -14 4 -21 -1 -17 -6 3 -9 -4 -8 -15 1 -11 5 -20 10
-20 5 0 5 -6 -2 -13 -8 -10 -7 -17 2 -27 9 -10 9 -11 0 -6 -15 8 -17 -3 -3
-24 5 -9 5 -19 -2 -27 -12 -15 -18 -15 169 -15 89 0 133 -4 135 -12 2 -6 4
-572 3 -1258 l0 -1247 245 -252 246 -251 426 -1 426 0 1 -288 0 -289 -22 -1
c-12 0 -79 0 -149 -1 -88 0 -128 -3 -130 -11 -3 -10 -2 -469 1 -488 1 -3 319
-5 709 -5 l707 1 0 250 0 250 -135 2 c-74 1 -142 2 -150 2 -13 1 -15 39 -15
288 l0 288 423 1 423 1 90 94 c50 52 160 164 245 250 85 87 154 165 155 175 0
11 0 578 1 1260 l0 1242 136 0 c76 0 144 1 153 1 14 1 16 25 16 196 l0 195
-671 -2 -671 -3 0 -192 c0 -123 3 -193 10 -194 5 0 66 -2 135 -2 l125 -2 0
-1070 c1 -588 -1 -1077 -3 -1085 -3 -13 -40 -15 -280 -14 -152 1 -279 2 -282
3 -3 0 -5 644 -5 1430 l0 1429 120 0 c66 0 134 0 152 1 l31 1 0 194 c0 162 -2
195 -14 200 -10 4 -13 2 -8 -7 6 -9 4 -9 -8 1 -13 10 -17 10 -21 0 -4 -10 -6
-10 -6 1 -1 11 -4 11 -16 1 -9 -7 -15 -8 -15 -2 0 11 -18 11 -37 -1 -7 -5 -13
-4 -13 0 0 5 -9 9 -20 9 -11 0 -20 -4 -20 -9 0 -6 -5 -6 -12 -1 -16 11 -39 11
-55 1 -8 -5 -13 -3 -13 4 0 8 -4 8 -15 -1 -8 -7 -15 -8 -15 -3 0 9 -22 10 -55
3 -5 -1 -12 -1 -15 0 -18 7 -60 4 -60 -4 0 -6 -5 -5 -11 1 -8 8 -20 8 -35 3
-13 -5 -24 -6 -24 -1 0 4 -7 8 -15 8 -8 0 -15 -5 -15 -10 0 -5 -6 -5 -13 2
-10 8 -17 7 -25 -1 -8 -8 -12 -9 -12 -1 0 12 -18 12 -37 0 -6 -4 -13 -1 -16 5
-3 10 -7 10 -20 -1 -13 -10 -17 -10 -17 -1 0 10 -3 10 -15 0 -8 -7 -15 -8 -15
-3 0 11 -41 9 -59 -1 -5 -4 -12 -2 -15 3 -7 10 -25 9 -43 -2 -8 -5 -13 -3 -13
4 0 8 -4 8 -15 -1 -8 -7 -15 -8 -15 -3 0 11 -41 9 -59 -1 -5 -4 -12 -2 -16 4
-4 7 -12 7 -26 0 -10 -6 -19 -7 -19 -2 0 5 -7 9 -15 9 -8 0 -15 -5 -15 -10 0
-5 -6 -5 -13 2 -10 8 -17 7 -25 -1 -8 -8 -12 -9 -12 -1 0 12 -18 12 -37 0 -7
-5 -13 -4 -13 0 0 5 -9 9 -20 9 -11 0 -20 -4 -20 -9 0 -6 -5 -6 -12 -1 -16 11
-39 11 -55 1 -8 -5 -13 -3 -13 4 0 8 -4 8 -15 -1 -8 -7 -15 -8 -15 -3 0 9 -22
10 -55 3 -5 -1 -12 -1 -15 0 -17 6 -60 4 -60 -3 0 -5 -6 -5 -13 1 -7 6 -17 8
-23 4z"/>
</g>
</svg>
